<?xml version="1.0" encoding="UTF-8"?>
<svg version="1.1" xmlns="http://www.w3.org/2000/svg" width="512" height="512">
<path d="M0 0 C1.01790619 0.00215515 2.03581238 0.0043103 3.08456421 0.00653076 C17.69363523 0.05620146 32.02575853 0.30709809 46.375 3.3125 C47.34985352 3.51117676 48.32470703 3.70985352 49.32910156 3.91455078 C97.7109774 14.03517194 141.69928269 35.9516877 177.375 70.3125 C178.3640332 71.26068604 178.3640332 71.26068604 179.37304688 72.22802734 C188.86130305 81.37247479 197.6012044 90.66984009 205.375 101.3125 C206.23306152 102.46355017 207.09113451 103.61459177 207.94921875 104.765625 C213.98736829 112.95680614 219.34595521 121.47054105 224.375 130.3125 C224.73948242 130.94430176 225.10396484 131.57610352 225.47949219 132.22705078 C247.00981855 169.84336237 256.83759735 212.56515288 256.75 255.625 C256.74918427 257.13927582 256.74918427 257.13927582 256.74835205 258.68414307 C256.70758601 275.19373539 255.80029309 291.11032001 252.375 307.3125 C252.15537598 308.35438477 251.93575195 309.39626953 251.70947266 310.46972656 C241.61185215 356.76299311 219.25271242 399.17663721 186.375 433.3125 C185.74287598 433.97185547 185.11075195 434.63121094 184.45947266 435.31054688 C175.31502521 444.79880305 166.01765991 453.5387044 155.375 461.3125 C154.22394983 462.17056152 153.07290823 463.02863451 151.921875 463.88671875 C143.73224019 469.92427396 135.22961724 475.30707302 126.375 480.3125 C125.66778809 480.7146875 124.96057617 481.116875 124.23193359 481.53125 C98.02919713 496.28361537 69.08869203 505.81885806 39.375 510.3125 C38.25254883 510.48910156 37.13009766 510.66570312 35.97363281 510.84765625 C24.36052257 512.5045586 12.84320055 512.71123513 1.125 512.6875 C-0.39302216 512.68668427 -0.39302216 512.68668427 -1.94171143 512.68585205 C-18.47030572 512.64511956 -34.40413999 511.74174222 -50.625 508.3125 C-51.66688477 508.09287598 -52.70876953 507.87325195 -53.78222656 507.64697266 C-100.07549311 497.54935215 -142.48913721 475.19021242 -176.625 442.3125 C-177.28435547 441.68037598 -177.94371094 441.04825195 -178.62304688 440.39697266 C-188.11130305 431.25252521 -196.8512044 421.95515991 -204.625 411.3125 C-205.48306152 410.16144983 -206.34113451 409.01040823 -207.19921875 407.859375 C-213.23677396 399.66974019 -218.61957302 391.16711724 -223.625 382.3125 C-224.0271875 381.60528809 -224.429375 380.89807617 -224.84375 380.16943359 C-239.59720851 353.96475553 -249.12670334 325.02703614 -253.625 295.3125 C-253.80232666 294.19367432 -253.97965332 293.07484863 -254.16235352 291.92211914 C-255.84376341 280.20014053 -255.98234341 268.57751024 -255.9375 256.75 C-255.93426727 255.21939438 -255.93426727 255.21939438 -255.93096924 253.65786743 C-255.88133352 239.03039476 -255.63419712 224.67986162 -252.625 210.3125 C-252.42632324 209.33764648 -252.22764648 208.36279297 -252.02294922 207.35839844 C-241.90232806 158.9765226 -219.9858123 114.98821731 -185.625 79.3125 C-184.99287598 78.65314453 -184.36075195 77.99378906 -183.70947266 77.31445312 C-174.56502521 67.82619695 -165.26765991 59.0862956 -154.625 51.3125 C-153.47394983 50.45443848 -152.32290823 49.59636549 -151.171875 48.73828125 C-142.98224019 42.70072604 -134.47961724 37.31792698 -125.625 32.3125 C-124.91778809 31.9103125 -124.21057617 31.508125 -123.48193359 31.09375 C-100.34654164 18.0683259 -75.17537591 9.31948539 -49.1875 4 C-48.46860596 3.85264404 -47.74971191 3.70528809 -47.0090332 3.5534668 C-31.36274391 0.57960912 -15.88931954 -0.06050362 0 0 Z " fill="#FEFEFE" transform="translate(255.625,-0.3125)"/>
<path d="M0 0 C1.01790619 0.00215515 2.03581238 0.0043103 3.08456421 0.00653076 C17.69363523 0.05620146 32.02575853 0.30709809 46.375 3.3125 C47.34985352 3.51117676 48.32470703 3.70985352 49.32910156 3.91455078 C97.7109774 14.03517194 141.69928269 35.9516877 177.375 70.3125 C178.3640332 71.26068604 178.3640332 71.26068604 179.37304688 72.22802734 C188.86130305 81.37247479 197.6012044 90.66984009 205.375 101.3125 C206.23306152 102.46355017 207.09113451 103.61459177 207.94921875 104.765625 C213.98736829 112.95680614 219.34595521 121.47054105 224.375 130.3125 C224.73948242 130.94430176 225.10396484 131.57610352 225.47949219 132.22705078 C247.00981855 169.84336237 256.83759735 212.56515288 256.75 255.625 C256.74918427 257.13927582 256.74918427 257.13927582 256.74835205 258.68414307 C256.70758601 275.19373539 255.80029309 291.11032001 252.375 307.3125 C252.15537598 308.35438477 251.93575195 309.39626953 251.70947266 310.46972656 C244.0661566 345.51105808 229.4573342 378.29707764 208.375 407.3125 C207.39080078 408.68148437 207.39080078 408.68148437 206.38671875 410.078125 C205.0876671 411.85153202 203.73948913 413.58893478 202.375 415.3125 C202.045 415.3125 201.715 415.3125 201.375 415.3125 C201.375 335.1225 201.375 254.9325 201.375 172.3125 C178.275 172.3125 155.175 172.3125 131.375 172.3125 C131.375 138.6525 131.375 104.9925 131.375 70.3125 C109.925 70.3125 88.475 70.3125 66.375 70.3125 C67.035 71.9625 67.695 73.6125 68.375 75.3125 C68.63378906 77.35791016 68.63378906 77.35791016 68.640625 79.3515625 C68.64703003 80.46108276 68.64703003 80.46108276 68.65356445 81.59301758 C68.64413818 82.36669678 68.63471191 83.14037598 68.625 83.9375 C68.61750732 84.74147217 68.61001465 85.54544434 68.60229492 86.3737793 C68.26015281 105.37509044 61.02816253 122.03400778 48 135.8984375 C33.01988152 149.67479646 14.39868012 154.99732195 -5.62109375 154.65625 C-22.99995592 153.85522697 -39.01453138 144.29455089 -50.84765625 132.00390625 C-62.61478086 118.1962398 -67.79752136 101.99452212 -67.8125 84.125 C-67.82474609 83.34447266 -67.83699219 82.56394531 -67.84960938 81.75976562 C-67.85154297 80.99986328 -67.85347656 80.23996094 -67.85546875 79.45703125 C-67.85957764 78.78003174 -67.86368652 78.10303223 -67.86791992 77.40551758 C-67.625 75.3125 -67.625 75.3125 -65.625 70.3125 C-87.075 70.3125 -108.525 70.3125 -130.625 70.3125 C-130.625 103.9725 -130.625 137.6325 -130.625 172.3125 C-153.725 172.3125 -176.825 172.3125 -200.625 172.3125 C-200.625 252.5025 -200.625 332.6925 -200.625 415.3125 C-203.93523942 412.00226058 -206.32140725 409.58725365 -208.82421875 405.86328125 C-209.38858643 405.02466553 -209.9529541 404.1860498 -210.53442383 403.32202148 C-211.12118896 402.43200439 -211.7079541 401.5419873 -212.3125 400.625 C-212.92826904 399.69308838 -213.54403809 398.76117676 -214.1784668 397.80102539 C-233.21785952 368.66344597 -246.22537033 336.57197893 -252.625 302.3125 C-252.78726074 301.50748047 -252.94952148 300.70246094 -253.11669922 299.87304688 C-258.58955505 271.88184616 -258.4709259 238.22377604 -252.625 210.3125 C-252.42632324 209.33764648 -252.22764648 208.36279297 -252.02294922 207.35839844 C-241.90232806 158.9765226 -219.9858123 114.98821731 -185.625 79.3125 C-184.99287598 78.65314453 -184.36075195 77.99378906 -183.70947266 77.31445312 C-174.56502521 67.82619695 -165.26765991 59.0862956 -154.625 51.3125 C-153.47394983 50.45443848 -152.32290823 49.59636549 -151.171875 48.73828125 C-142.98224019 42.70072604 -134.47961724 37.31792698 -125.625 32.3125 C-124.91778809 31.9103125 -124.21057617 31.508125 -123.48193359 31.09375 C-100.34654164 18.0683259 -75.17537591 9.31948539 -49.1875 4 C-48.46860596 3.85264404 -47.74971191 3.70528809 -47.0090332 3.5534668 C-31.36274391 0.57960912 -15.88931954 -0.06050362 0 0 Z " fill="#424E66" transform="translate(255.625,-0.3125)"/>
<path d="M0 0 C21.45 0 42.9 0 65 0 C65 33.66 65 67.32 65 102 C88.1 102 111.2 102 135 102 C135 181.86 135 261.72 135 344 C52.17 344 -30.66 344 -116 344 C-116 315.95 -116 287.9 -116 259 C-99.5 259 -83 259 -66 259 C-66 248.77 -66 238.54 -66 228 C-72.93 228 -79.86 228 -87 228 C-87 214.47 -87 200.94 -87 187 C-80.07 187 -73.14 187 -66 187 C-66 176.77 -66 166.54 -66 156 C-72.6 156 -79.2 156 -86 156 C-86 142.47 -86 128.94 -86 115 C-79.4 115 -72.8 115 -66 115 C-66 104.77 -66 94.54 -66 84 C-58.575 83.01 -58.575 83.01 -51 82 C-41.11773817 79.27647562 -32.25182444 75.10093905 -24 69 C-23.29617188 68.49082031 -22.59234375 67.98164063 -21.8671875 67.45703125 C-12.15904216 59.74762171 -6.06386777 48.50613164 -2 37 C-1.47212891 35.59041016 -1.47212891 35.59041016 -0.93359375 34.15234375 C1.0515693 27.44930365 1.1598709 20.74599776 1.125 13.8125 C1.12886719 13.03197266 1.13273437 12.25144531 1.13671875 11.44726562 C1.13542969 10.68736328 1.13414062 9.92746094 1.1328125 9.14453125 C1.13112061 8.12903198 1.13112061 8.12903198 1.12939453 7.09301758 C1.01610455 4.49449794 1.01610455 4.49449794 0 0 Z " fill="#D7F0FA" transform="translate(322,70)"/>
<path d="M0 0 C132.66 0 265.32 0 402 0 C399.74882408 5.62793979 399.74882408 5.62793979 397.3046875 8.20703125 C396.76199219 8.78549805 396.21929687 9.36396484 395.66015625 9.95996094 C395.07105469 10.57129883 394.48195313 11.18263672 393.875 11.8125 C393.25753906 12.4612207 392.64007813 13.10994141 392.00390625 13.77832031 C390.01178739 15.86126222 388.00678587 17.93119319 386 20 C385.0104834 21.03036377 385.0104834 21.03036377 384.00097656 22.08154297 C375.2151113 31.20963081 366.21886882 39.50985164 356 47 C355.14607666 47.63711914 355.14607666 47.63711914 354.27490234 48.28710938 C345.53408179 54.80268015 336.48913672 60.63588547 327 66 C325.93918213 66.60328125 325.93918213 66.60328125 324.85693359 67.21875 C298.65419713 81.97111537 269.71369203 91.50635806 240 96 C238.87754883 96.17660156 237.75509766 96.35320312 236.59863281 96.53515625 C224.98552257 98.1920586 213.46820055 98.39873513 201.75 98.375 C200.23197784 98.37418427 200.23197784 98.37418427 198.68328857 98.37335205 C182.15469428 98.33261956 166.22086001 97.42924222 150 94 C148.95811523 93.78037598 147.91623047 93.56075195 146.84277344 93.33447266 C95.44828934 82.1241599 52.30703469 56.06566197 15.1875 19.375 C14.48197998 18.6826123 13.77645996 17.99022461 13.04956055 17.27685547 C8.2985808 12.53316336 3.72813564 7.60574568 0 2 C0 1.34 0 0.68 0 0 Z " fill="#FEB455" transform="translate(55,414)"/>
<path d="M0 0 C21.45 0 42.9 0 65 0 C65 33.66 65 67.32 65 102 C88.1 102 111.2 102 135 102 C135 181.86 135 261.72 135 344 C111.9 344 88.8 344 65 344 C64.8703222 315.03425503 64.7423817 286.06850382 64.61781773 257.10273647 C64.60281312 253.61406382 64.58778944 250.12539126 64.57275391 246.63671875 C64.56826798 245.59574501 64.56826798 245.59574501 64.56369144 244.53374149 C64.52219262 234.91286851 64.47968357 225.2920005 64.43630803 215.67113581 C64.11369681 144.1136057 63.9295397 72.55830711 64 1 C42.88 1.33 21.76 1.66 0 2 C0 1.34 0 0.68 0 0 Z " fill="#CFD4F3" transform="translate(322,70)"/>
<path d="M0 0 C21.45 0 42.9 0 65 0 C64.67 0.66 64.34 1.32 64 2 C43.21 1.67 22.42 1.34 1 1 C1.00580078 6.89117676 1.01160156 12.78235352 1.01757812 18.85205078 C1.0673612 85.13033037 0.85342916 151.40629895 0.55461788 217.68380475 C0.51114653 227.33477178 0.46883554 236.98574344 0.42724609 246.63671875 C0.4227656 247.67632096 0.4227656 247.67632096 0.41819459 248.73692523 C0.40319543 252.21848162 0.38821441 255.7000381 0.37324238 259.18159461 C0.25163545 287.45440913 0.1265755 315.72720724 0 344 C-23.1 344 -46.2 344 -70 344 C-70 264.14 -70 184.28 -70 102 C-46.9 102 -23.8 102 0 102 C0 68.34 0 34.68 0 0 Z " fill="#D7F0FA" transform="translate(125,70)"/>
<path d="M0 0 C4.15712621 3.56325104 8.06028289 6.9358533 11.89045715 10.77693176 C12.79750397 11.68404907 13.70455078 12.59116638 14.63908386 13.52577209 C15.62116767 14.51298783 16.6032066 15.50024821 17.58520508 16.48754883 C18.63694253 17.54120856 19.68891018 18.59463855 20.74108887 19.64785767 C22.99381683 21.90373045 25.24498592 24.16114307 27.49494362 26.41977882 C31.05120983 29.98962376 34.61133783 33.5556007 38.17204285 37.12101746 C45.72183598 44.68187931 53.26737353 52.24698162 60.8125 59.8125 C68.97621822 67.99824531 77.14067081 76.18325028 85.30998915 84.36340731 C88.85169868 87.91010585 92.39095447 91.45922969 95.9283663 95.01021445 C98.12298043 97.21226691 100.31964552 99.41226445 102.51688385 101.61169815 C103.5376829 102.63437505 104.55761426 103.65791886 105.57662773 104.68237495 C106.96360948 106.07653343 108.35394121 107.46735682 109.74446106 108.85798645 C110.91164028 110.02849658 110.91164028 110.02849658 112.10239887 111.22265339 C113.88441992 113.06097314 113.88441992 113.06097314 116 114 C116.73022461 116.04345703 116.73022461 116.04345703 117.40234375 118.7578125 C117.65161621 119.76223389 117.90088867 120.76665527 118.15771484 121.80151367 C119.499944 127.5221666 120.7914617 133.24951973 122 139 C122.18804199 139.88961426 122.37608398 140.77922852 122.56982422 141.69580078 C128.48897254 171.53989827 127.27066988 206.33873611 121 236 C120.78037598 237.04188477 120.56075195 238.08376953 120.33447266 239.15722656 C112.6911566 274.19855808 98.0823342 306.98457764 77 336 C76.34386719 336.91265625 75.68773437 337.8253125 75.01171875 338.765625 C73.7126671 340.53903202 72.36448913 342.27643478 71 344 C70.67 344 70.34 344 70 344 C70 263.81 70 183.62 70 101 C46.9 101 23.8 101 0 101 C0 67.67 0 34.34 0 0 Z " fill="#2A323E" transform="translate(387,71)"/>
<path d="M0 0 C1.61455078 0.46019531 1.61455078 0.46019531 3.26171875 0.9296875 C20.67600989 6.48540194 34.09967888 17.99119789 42.66796875 34.14453125 C50.89218529 51.26308568 52.77252124 68.88080184 47 87.16796875 C40.76701946 104.65722005 29.58588123 118.50418665 13 127 C-3.52121005 134.5822353 -22.02598671 137.18482207 -39.49072266 131.19189453 C-58.51789594 124.12961714 -71.86594684 111.54266759 -80.52734375 93.33203125 C-87.59448011 77.34193227 -88.53247079 59.09963128 -82.484375 42.625 C-75.04290335 24.45214292 -62.34520363 10.38081726 -44.3125 2.25 C-30.61256159 -2.91978808 -14.18123334 -4.13891603 0 0 Z " fill="#E91C81" transform="translate(274,20)"/>
<path d="M0 0 C66.33 0 132.66 0 201 0 C201 32.01 201 64.02 201 97 C174.22284566 97 174.22284566 97 164.0625 95.375 C162.31646484 95.10876831 162.31646484 95.10876831 160.53515625 94.8371582 C103.78304139 85.74988003 55.69877118 58.41821093 15.1875 18.375 C14.48197998 17.6826123 13.77645996 16.99022461 13.04956055 16.27685547 C8.27544472 11.51006277 3.88070355 6.5303645 0 1 C0 0.67 0 0.34 0 0 Z " fill="#FFD320" transform="translate(55,415)"/>
<path d="M0 0 C33 0 66 0 100 0 C100 28.05 100 56.1 100 85 C67 85 34 85 0 85 C0 56.95 0 28.9 0 0 Z " fill="#B4B9F1" transform="translate(206,329)"/>
<path d="M0 0 C0 9.57 0 19.14 0 29 C-5.28 29 -10.56 29 -16 29 C-16 36.92 -16 44.84 -16 53 C-23.26 53 -30.52 53 -38 53 C-38 62.9 -38 72.8 -38 83 C-30.41 83 -22.82 83 -15 83 C-15 90.59 -15 98.18 -15 106 C-5.1 106 4.8 106 15 106 C15 106.33 15 106.66 15 107 C10.05 107 5.1 107 0 107 C0 116.57 0 126.14 0 136 C-12.81002429 136 -12.81002429 136 -19 133.875 C-19.68151123 133.6490918 -20.36302246 133.42318359 -21.06518555 133.19042969 C-38.58677473 127.15234757 -52.44982385 115.52325278 -60.8125 98.9375 C-68.63701965 82.48640287 -71.14940615 64.09164184 -65.19628906 46.56420898 C-58.38595205 28.01328069 -45.77512688 13.82395406 -28.0625 5.0390625 C-18.78231752 0.85469451 -10.04520737 0 0 0 Z " fill="#FE425E" transform="translate(256,18)"/>
<path d="M0 0 C16.5 0 33 0 50 0 C50 28.05 50 56.1 50 85 C33.5 85 17 85 0 85 C0 56.95 0 28.9 0 0 Z " fill="#ACCEFF" transform="translate(206,329)"/>
<path d="M0 0 C10.56 0 21.12 0 32 0 C32 7.59 32 15.18 32 23 C39.59 23 47.18 23 55 23 C55 33.56 55 44.12 55 55 C47.41 55 39.82 55 32 55 C32 62.26 32 69.52 32 77 C21.77 77 11.54 77 1 77 C1 69.41 1 61.82 1 54 C-6.59 54 -14.18 54 -22 54 C-22 44.1 -22 34.2 -22 24 C-14.74 24 -7.48 24 0 24 C0 16.08 0 8.16 0 0 Z " fill="#D9E8F5" transform="translate(240,47)"/>
<path d="M0 0 C4.95 0 9.9 0 15 0 C15 25.08 15 50.16 15 76 C10.05 76 5.1 76 0 76 C0 68.41 0 60.82 0 53 C-7.59 53 -15.18 53 -23 53 C-23 43.1 -23 33.2 -23 23 C-15.74 22.67 -8.48 22.34 -1 22 C-0.67 14.74 -0.34 7.48 0 0 Z " fill="#FFFEFE" transform="translate(241,48)"/>
<path d="M0 0 C13.53 0 27.06 0 41 0 C41 13.53 41 27.06 41 41 C27.47 41 13.94 41 0 41 C0 27.47 0 13.94 0 0 Z " fill="#03C6CB" transform="translate(309,257)"/>
<path d="M0 0 C13.53 0 27.06 0 41 0 C41 13.53 41 27.06 41 41 C27.47 41 13.94 41 0 41 C0 27.47 0 13.94 0 0 Z " fill="#04ECCE" transform="translate(162,257)"/>
<path d="M0 0 C13.53 0 27.06 0 41 0 C41 13.53 41 27.06 41 41 C27.47 41 13.94 41 0 41 C0 27.47 0 13.94 0 0 Z " fill="#03C6CB" transform="translate(309,185)"/>
<path d="M0 0 C13.53 0 27.06 0 41 0 C41 13.53 41 27.06 41 41 C27.47 41 13.94 41 0 41 C0 27.47 0 13.94 0 0 Z " fill="#04ECCE" transform="translate(162,185)"/>
<path d="M0 0 C13.2 0 26.4 0 40 0 C40 13.53 40 27.06 40 41 C26.8 41 13.6 41 0 41 C0 27.47 0 13.94 0 0 Z " fill="#03EACE" transform="translate(236,185)"/>
<path d="M0 0 C13.2 0 26.4 0 40 0 C40 13.2 40 26.4 40 40 C26.8 40 13.6 40 0 40 C0 26.8 0 13.6 0 0 Z " fill="#00C6CB" transform="translate(236,257)"/>
<path d="M0 0 C6.6 0 13.2 0 20 0 C20 13.2 20 26.4 20 40 C13.4 40 6.8 40 0 40 C0 26.8 0 13.6 0 0 Z " fill="#00ECCE" transform="translate(236,257)"/>
<path d="M0 0 C6.6 0 13.2 0 20 0 C20 12.87 20 25.74 20 39 C13.4 39 6.8 39 0 39 C0 26.13 0 13.26 0 0 Z " fill="#00C6CB" transform="translate(256,186)"/>
<path d="M0 0 C5.60525362 4.66732274 10.79461593 9.64317437 15.9375 14.8125 C16.71673828 15.58787109 17.49597656 16.36324219 18.29882812 17.16210938 C19.03423828 17.89880859 19.76964844 18.63550781 20.52734375 19.39453125 C21.19499756 20.06331299 21.86265137 20.73209473 22.55053711 21.42114258 C24 23 24 23 24 24 C19.38 24 14.76 24 10 24 C9.278125 22.040625 8.55625 20.08125 7.8125 18.0625 C5.87828627 13.00038635 3.71395715 8.34407048 0.91796875 3.70703125 C0 2 0 2 0 0 Z " fill="#2D313F" transform="translate(312,46)"/>
</svg>
